<?xml version="1.0" encoding="UTF-8"?>
<svg fill="none" viewBox="0 0 722 244" xmlns="http://www.w3.org/2000/svg">
<path d="m218.69 222.15c-6.629 4.313-13.309 7.968-19.936 10.92-26.179 11.661-51.189 12.239-69.227-0.238-4.12-2.85-7.728-6.278-10.819-10.211 19.117-12.803 37.69-30.97 53.341-53.44 37.638-54.037 45.974-115.16 22.714-147.3 6.645-4.3267 13.341-7.9917 19.984-10.951 26.179-11.661 51.189-12.239 69.227 0.2375 4.11 2.8426 7.709 6.26 10.795 10.18-19.133 12.805-37.724 30.983-53.388 53.471-37.65 54.054-45.979 115.2-22.691 147.33zm-25.13-201.87c33.239-21.68 67.907-27.113 91.557-10.754 4.334 2.9975 8.109 6.5961 11.33 10.712 33.209-21.645 67.836-27.061 91.464-10.712 4.346 3.0076 8.131 6.6203 11.358 10.754 33.24-21.68 67.907-27.113 91.558-10.754 4.333 2.9975 8.108 6.5961 11.33 10.712 33.209-21.645 67.836-27.061 91.463-10.712 4.347 3.0076 8.131 6.6202 11.359 10.754 33.239-21.68 67.907-27.112 91.557-10.754 16.247 11.238 24.641 30.923 25.463 54.663h-2.003c-0.819-23.292-9.057-42.269-24.603-53.022-18.038-12.477-43.048-11.899-69.227-0.2375-6.643 2.9591-13.339 6.624-19.984 10.951 23.26 32.141 14.924 93.263-22.714 147.3-15.651 22.47-34.225 40.637-53.341 53.44 3.091 3.933 6.698 7.361 10.819 10.211 18.038 12.477 43.048 11.899 69.227 0.238 11.435-5.094 23.026-12.279 34.245-21.33v2.559c-36.954 29.287-77.844 38.692-104.62 20.174-4.344-3.005-8.127-6.614-11.353-10.742-33.223 21.67-67.871 27.098-91.51 10.742-4.336-3-8.112-6.602-11.335-10.723-33.225 21.654-67.871 27.074-91.511 10.723-4.344-3.005-8.127-6.614-11.354-10.743-33.223 21.671-67.871 27.099-91.509 10.743-4.336-3-8.113-6.602-11.335-10.723-33.226 21.654-67.872 27.074-91.511 10.723-4.345-3.005-8.127-6.614-11.354-10.743-33.223 21.671-67.871 27.099-91.51 10.743-37.66-26.057-33.114-97.537 10.152-159.65 43.266-62.117 108.87-91.35 146.53-65.292 4.347 3.0076 8.131 6.6203 11.359 10.754zm-77.734 201.85c-6.637 4.322-13.324 7.983-19.959 10.939-26.17 11.662-51.172 12.24-69.203-0.237-18.032-12.476-26.229-36.025-24.416-64.539 1.8103-28.471 13.609-61.526 35.069-92.336s48.408-53.383 74.538-65.026c26.17-11.661 51.171-12.239 69.203 0.2373 4.123 2.8528 7.732 6.2843 10.824 10.222-19.117 12.803-37.691 30.966-53.343 53.429-37.655 54.043-45.991 115.17-22.713 147.31zm1.675-1.105c-9.586-13.192-13.742-31.598-12.398-52.732 1.811-28.471 13.614-61.526 35.081-92.336 15.553-22.322 33.987-40.32 52.904-52.97 9.577 13.191 13.729 31.593 12.385 52.721-1.81 28.471-13.608 61.526-35.068 92.336-15.553 22.328-33.987 40.331-52.904 52.982zm102.86 0.02c-9.593-13.193-13.753-31.607-12.409-52.752 1.811-28.471 13.609-61.526 35.069-92.336 15.565-22.347 34.018-40.361 52.951-53.014 7.814 10.737 12.027 24.933 12.6 41.246h2.003c-0.574-16.6-4.852-31.218-12.927-42.351 6.621-4.3081 13.292-7.9586 19.911-10.908 26.17-11.661 51.172-12.239 69.203 0.2373 4.123 2.8528 7.732 6.2843 10.825 10.222-19.118 12.803-37.692 30.966-53.344 53.429-37.655 54.043-45.991 115.17-22.713 147.31-6.637 4.322-13.324 7.983-19.959 10.939-26.17 11.662-51.171 12.24-69.203-0.237-4.112-2.845-7.713-6.266-10.8-10.191 3.837-2.567 7.652-5.351 11.426-8.342v-2.559c-4.169 3.363-8.389 6.469-12.633 9.305zm293.92-156.86c-0.573-16.313-4.786-30.509-12.599-41.246-18.934 12.653-37.386 30.666-52.951 53.014-21.46 30.81-33.259 63.865-35.069 92.336-1.345 21.145 2.815 39.559 12.408 52.752 4.245-2.836 8.465-5.942 12.634-9.305v2.559c-3.774 2.991-7.59 5.775-11.427 8.342 3.087 3.925 6.688 7.346 10.8 10.191 18.032 12.477 43.033 11.899 69.204 0.237 6.634-2.956 13.322-6.617 19.959-10.939-23.278-32.138-14.942-93.268 22.713-147.31 15.651-22.464 34.226-40.627 53.343-53.43-3.093-3.9374-6.701-7.3689-10.824-10.222-18.032-12.476-43.033-11.899-69.204-0.2373-6.618 2.9493-13.29 6.5998-19.911 10.908 8.076 11.133 12.353 25.751 12.928 42.351h-2.004zm-24.602-53.022c4.109 2.8426 7.708 6.26 10.795 10.18-19.133 12.805-37.725 30.983-53.388 53.471-37.65 54.054-45.979 115.2-22.691 147.33-6.63 4.313-13.309 7.968-19.936 10.92-26.179 11.661-51.189 12.239-69.227-0.238-4.121-2.85-7.728-6.278-10.82-10.211 19.117-12.803 37.691-30.97 53.342-53.44 37.638-54.037 45.973-115.16 22.713-147.3 6.645-4.3267 13.341-7.9917 19.984-10.951 26.179-11.661 51.189-12.239 69.228 0.2375zm92.14 156.88c-15.553 22.328-33.987 40.331-52.904 52.982-9.586-13.192-13.742-31.598-12.398-52.732 1.811-28.471 13.613-61.526 35.081-92.336 15.552-22.322 33.987-40.32 52.904-52.97 9.577 13.191 13.729 31.593 12.385 52.721-1.81 28.471-13.609 61.526-35.068 92.336zm-258.61 52.982c18.916-12.651 37.351-30.654 52.903-52.982 21.46-30.81 33.259-63.865 35.069-92.336 1.343-21.128-2.809-39.53-12.386-52.721-18.917 12.651-37.351 30.649-52.904 52.97-21.467 30.81-33.269 63.865-35.08 92.336-1.345 21.134 2.812 39.54 12.398 52.732z" clip-rule="evenodd" fill="#4A4A4A" fill-rule="evenodd" opacity=".7"/>
</svg>
