<svg xmlns="http://www.w3.org/2000/svg" fill="#E67776" width="800" height="800" viewBox="0 0 483 483" xmlns:v="https://vecta.io/nano"><path d="M395.72 0c-48.204 0-87.281 39.078-87.281 87.281 0 2.036.164 4.03.309 6.029l-161.233 75.674c-15.668-14.971-36.852-24.215-60.231-24.215C39.08 144.77.002 183.848.002 232.051s39.078 87.281 87.281 87.281c15.206 0 29.501-3.907 41.948-10.741l69.789 58.806c-3.056 8.896-4.789 18.396-4.789 28.322 0 48.204 39.078 87.281 87.281 87.281s87.281-39.078 87.281-87.281-39.077-87.281-87.281-87.281a86.94 86.94 0 0 0-41.949 10.74l-69.788-58.805c3.057-8.891 4.789-18.396 4.789-28.322 0-2.035-.164-4.024-.308-6.029l161.232-75.674c15.668 14.971 36.852 24.215 60.23 24.215 48.203 0 87.281-39.078 87.281-87.281S443.923 0 395.72 0z"/></svg>