<svg xmlns="http://www.w3.org/2000/svg" width="800" height="800" viewBox="0 0 24 24" fill="none"><path fill-rule="evenodd" d="M5.788 14.02c.044.015.088.025.132.032l.183.431.662 1.572 1.121 2.795c.139.438.285.736.445.94.083.105.178.197.29.267a.88.88 0 0 0 .178.085c.328.124.62.073.803.012.098-.033.177-.073.233-.105l.072-.045.005-.003 2.826-1.762 3.265 2.503a.75.75 0 0 0 .156.092c.392.171.772.231 1.129.182s.64-.198.851-.367.346-.35.433-.488c.044-.07.078-.132.102-.18l.029-.061.009-.022.004-.009.002-.004.001-.002v-.002c.017-.043.03-.087.039-.133l2.98-15.025a.75.75 0 0 0 .014-.146c0-.44-.166-.858-.556-1.112-.333-.217-.704-.226-.939-.209-.253.019-.487.082-.644.132l-.199.07-.06.024-.011.005-16.714 6.557-.002.001-.041.015-.126.053a2.52 2.52 0 0 0-.38.212c-.227.156-.75.582-.662 1.285.07.561.455.906.689 1.071a2.32 2.32 0 0 0 .34.198l.164.07.009.004 3.169 1.067zm14.138-9.152l-.002.001-.025.01-16.734 6.565-.026.01-.009.004-.051.022-.04.019.053.027.033.015 3.143 1.058a.75.75 0 0 1 .16.076l10.377-6.075.01-.006.029-.017.095-.051a2.05 2.05 0 0 1 .317-.131c.09-.028.357-.107.645-.014.178.057.362.18.482.387.059.103.091.207.107.302a.84.84 0 0 1 .002.425c-.069.275-.262.489-.437.652l-4.015 3.868-2.612 2.521-.465.449 5.872 4.502c.135.048.214.046.251.041.044-.006.08-.023.116-.052s.077-.077.104-.12l.001-.002 2.89-14.573-.128.036-.112.039-.027.011-.002.001zm-8.461 12.394l-1.171-.898-.284 1.806 1.455-.907zm-2.246-2.68l1.165-1.125 2.613-2.521.973-.938-6.52 3.817.035.082.665 1.579.555 1.341.283-1.8c.027-.174.112-.324.232-.434z" fill="#F7F8FF"/></svg>